<svg t="1700905006810" class="icon" viewBox="0 0 1024 1024" version="1.1"
    xmlns="http://www.w3.org/2000/svg" p-id="5621" width="200" height="200">
    <path
        d="M513.9456 513.6384m-450.816 0a450.816 450.816 0 1 0 901.632 0 450.816 450.816 0 1 0-901.632 0Z"
        fill="rgb(225,29,72)" p-id="5622"></path>
    <path
        d="M840.3456 399.4624c-23.9616-108.9536-109.2096-177.1008-230.4-152.6272-38.0416 7.68-68.096 28.5696-94.7712 55.9104-2.2528-0.9728-3.1744-1.1776-3.7888-1.6896-1.6896-1.4336-3.328-2.9184-4.864-4.5056-34.7648-35.9936-77.7728-52.5312-127.1808-54.528-59.0848-2.3552-109.2608 16.9984-146.8416 62.976-65.9968 80.6912-67.7376 201.6768-6.0416 288.2048 31.3856 44.032 69.376 81.7152 111.2576 115.3536 43.1104 34.6624 87.1936 68.1984 131.5328 101.2736 27.8016 20.736 58.0096 22.2208 84.0192 3.4304 75.6736-54.784 151.808-109.1072 215.04-178.944 60.672-67.1744 92.16-143.3088 72.0384-234.8544z m-502.016 150.3744c-5.4272 3.9424-11.776 5.8368-18.0224 5.8368-9.5232 0-18.8928-4.4032-24.8832-12.6976-58.9824-81.3568-16.384-154.3168-14.592-157.3888a30.68928 30.68928 0 0 1 42.1376-10.496 30.75584 30.75584 0 0 1 10.7008 41.8816c-2.5088 4.5056-22.4256 43.2128 11.4688 89.9584 9.984 13.7216 6.912 32.9216-6.8096 42.9056z"
        fill="#FFFFFF" p-id="5623"></path>
</svg>