<svg t="1700898993245" class="icon" viewBox="0 0 1024 1024" version="1.1"
    xmlns="http://www.w3.org/2000/svg" p-id="15884" width="200" height="200">
    <path
        d="M511.1808 513.6384m-450.816 0a450.816 450.816 0 1 0 901.632 0 450.816 450.816 0 1 0-901.632 0Z"
        fill="rgb(225,29,72)" p-id="15885"></path>
    <path
        d="M265.5232 390.6048h487.9872c11.264 0 20.4288-9.1136 20.4288-20.4288v-0.7168h39.0656v-41.5232L508.3136 202.8544 201.8816 324.5568v45.312l43.2128 0.3584c0 11.264 9.1648 20.3776 20.4288 20.3776zM288 411.7504v242.7904h-13.0048c-16.128 0-29.2352 13.056-29.2352 29.2352v14.6944h531.2v-14.6944c0-16.128-13.056-29.2352-29.2352-29.2352h-12.288V411.7504h-80.9472v242.7904h-41.2672V411.7504h-80.9472v242.7904H491.008V411.7504H410.2144v242.7904h-41.2672V411.7504H288zM784.4864 716.0832H238.336c-16.128 0-29.2352 13.056-29.2352 29.2352v31.3344h604.5184v-31.3344a29.1072 29.1072 0 0 0-29.1328-29.2352z"
        fill="#FFFFFF" p-id="15886"></path>
</svg>