<svg t="1700905735225" class="icon" viewBox="0 0 1024 1024" version="1.1"
    xmlns="http://www.w3.org/2000/svg" p-id="5772" width="200" height="200">
    <path
        d="M508.1088 514.7136m-450.816 0a450.816 450.816 0 1 0 901.632 0 450.816 450.816 0 1 0-901.632 0Z"
        fill="#FFFFFF" p-id="5773"></path>
    <path
        d="M505.344 201.5232c-176.128 0-318.8736 142.7456-318.8736 318.8736s142.7456 318.8736 318.8736 318.8736 318.8736-142.7456 318.8736-318.8736S681.472 201.5232 505.344 201.5232z m0.4096 541.3888c-17.5104 0-31.6928-14.1824-31.6928-31.6928 0-17.5104 14.1824-31.6928 31.6928-31.6928s31.6928 14.1824 31.6928 31.6928c0.0512 17.5104-14.1824 31.6928-31.6928 31.6928z m58.9824-185.4464c-21.0432 10.752-34.0992 31.3344-34.0992 53.7088v16.896a27.904 27.904 0 1 1-55.808 0v-16.896c0-43.4688 24.7296-83.0976 64.512-103.424 28.8256-14.7456 46.0288-45.1584 43.776-77.568-2.7648-39.7824-34.816-71.8336-74.5984-74.5984-22.6816-1.536-44.2368 6.0416-60.7232 21.4528-16.5376 15.4112-25.6 36.352-25.6 58.9312a27.904 27.904 0 1 1-55.808 0c0-37.6832 15.8208-74.0352 43.3664-99.7376 27.9552-26.0608 64.3584-38.9632 102.656-36.352 67.4304 4.6592 121.8048 59.0336 126.464 126.464a136.72448 136.72448 0 0 1-74.1376 131.1232z"
        fill="rgb(225,29,72)" p-id="5774"></path>
</svg>