<svg t="1700898721880" class="icon" viewBox="0 0 1024 1024" version="1.1"
    xmlns="http://www.w3.org/2000/svg" p-id="5543" id="mx_n_1700898721882" width="200" height="200">
    <path
        d="M513.2288 510.72m-450.816 0a450.816 450.816 0 1 0 901.632 0 450.816 450.816 0 1 0-901.632 0Z"
        fill="rgb(225,29,72)" p-id="5544"></path>
    <path
        d="M777.8304 321.6896h-198.4512l62.6176-60.7744a29.2864 29.2864 0 0 0 0.6144-41.4208 29.2864 29.2864 0 0 0-41.4208-0.6144L514.4576 303.104 436.3264 219.8528a29.28128 29.28128 0 0 0-41.3696-1.3312 29.2352 29.2352 0 0 0-1.28 41.3696L451.584 321.6896H258.7648c-19.712 0-35.6352 15.9744-35.6352 35.6352v83.3024c0 19.712 15.9744 35.6352 35.6352 35.6352h27.2384v238.7456c0 45.1072 36.608 81.7152 81.7152 81.7152h301.2096c45.1072 0 81.7152-36.608 81.7152-81.7152V476.3136h27.2384c19.712 0 35.6352-15.9744 35.6352-35.6352V357.376a35.6864 35.6864 0 0 0-35.6864-35.6864z m-230.2464 342.0672c0 16.1792-13.1072 29.2864-29.2864 29.2864s-29.2864-13.1072-29.2864-29.2864v-97.7408c0-16.1792 13.1072-29.2864 29.2864-29.2864s29.2864 13.1072 29.2864 29.2864v97.7408z"
        fill="#FFFFFF" p-id="5545"></path>
</svg>